<svg width="170px"  height="170px"  xmlns="http://www.w3.org/2000/svg" viewBox="0 0 100 100" preserveAspectRatio="xMidYMid" class="lds-lds-clock" style="background: none;"><g transform="translate(50 50)"><g ng-attr-transform="scale({{config.scale}})" transform="scale(0.3)"><g transform="translate(-50 -50)"><path ng-attr-fill="{{config.c1}}" ng-attr-stroke="{{config.c1}}" ng-attr-stroke-width="{{config.width}}" d="M50,14c19.85,0,36,16.15,36,36S69.85,86,50,86S14,69.85,14,50S30.15,14,50,14 M50,10c-22.091,0-40,17.909-40,40 s17.909,40,40,40s40-17.909,40-40S72.091,10,50,10L50,10z" fill="#b0ed60" stroke="#b0ed60" stroke-width="0"></path><path ng-attr-fill="{{config.c3}}" d="M52.78,42.506c-0.247-0.092-0.415-0.329-0.428-0.603L52.269,40l-0.931-21.225C51.304,18.06,50.716,17.5,50,17.5 s-1.303,0.56-1.338,1.277L47.731,40l-0.083,1.901c-0.013,0.276-0.181,0.513-0.428,0.604c-0.075,0.028-0.146,0.063-0.22,0.093V44h6 v-1.392C52.925,42.577,52.857,42.535,52.78,42.506z" fill="#ed6060" transform="rotate(19.2 50 50)"><animateTransform attributeName="transform" type="rotate" calcMode="linear" values="0 50 50;360 50 50" keyTimes="0;1" dur="1.25s" begin="0s" repeatCount="indefinite"></animateTransform></path><path ng-attr-fill="{{config.c2}}" d="M58.001,48.362c-0.634-3.244-3.251-5.812-6.514-6.391c-3.846-0.681-7.565,1.35-9.034,4.941 c-0.176,0.432-0.564,0.717-1.013,0.744l-15.149,0.97c-0.72,0.043-1.285,0.642-1.285,1.383c0,0.722,0.564,1.321,1.283,1.363 l15.153,0.971c0.447,0.027,0.834,0.312,1.011,0.744c1.261,3.081,4.223,5.073,7.547,5.073c2.447,0,4.744-1.084,6.301-2.975 C57.858,53.296,58.478,50.808,58.001,48.362z M50,53.06c-1.688,0-3.06-1.373-3.06-3.06s1.373-3.06,3.06-3.06s3.06,1.373,3.06,3.06 S51.688,53.06,50,53.06z" fill="#1d1d1d" transform="rotate(274.8 50 50)"><animateTransform attributeName="transform" type="rotate" calcMode="linear" values="0 50 50;360 50 50" keyTimes="0;1" dur="5s" begin="0s" repeatCount="indefinite"></animateTransform></path></g></g></g></svg>